<svg width="80" height="56" viewBox="0 0 80 56" fill="none" xmlns="http://www.w3.org/2000/svg">
<path d="M76.6 5.8C74.43 1.94 72.075 1.23 67.28 0.96C62.49 0.635 50.445 0.5 40.01 0.5C29.555 0.5 17.505 0.635 12.72 0.955C7.935 1.23 5.575 1.935 3.385 5.8C1.15 9.655 0 16.295 0 27.985C0 27.995 0 28 0 28C0 28.01 0 28.015 0 28.015V28.025C0 39.665 1.15 46.355 3.385 50.17C5.575 54.03 7.93 54.73 12.715 55.055C17.505 55.335 29.555 55.5 40.01 55.5C50.445 55.5 62.49 55.335 67.285 55.06C72.08 54.735 74.435 54.035 76.605 50.175C78.86 46.36 80 39.67 80 28.03C80 28.03 80 28.015 80 28.005C80 28.005 80 27.995 80 27.99C80 16.295 78.86 9.655 76.6 5.8Z" fill="#EBC4AD"/>
<path d="M30 43V13L55 28L30 43Z" fill="#FAFAFA"/>
</svg>
