<svg width="55" height="55" viewBox="0 0 55 55" fill="none" xmlns="http://www.w3.org/2000/svg">
<rect width="55" height="55" rx="10" fill="#EBC4AD"/>
<path d="M49 14.1673C47.4009 14.8688 45.6971 15.3337 43.9206 15.5594C45.7481 14.4683 47.1429 12.7537 47.7987 10.687C46.0948 11.7029 44.2136 12.4204 42.2087 12.8209C40.5908 11.0982 38.2849 10.0312 35.7694 10.0312C30.8889 10.0312 26.9598 13.9926 26.9598 18.8489C26.9598 19.5477 27.0189 20.2196 27.1641 20.8592C19.8353 20.5017 13.3503 16.9892 8.99387 11.6384C8.23331 12.9579 7.78719 14.4683 7.78719 16.0943C7.78719 19.1473 9.35938 21.8536 11.7029 23.4204C10.2866 23.3935 8.89712 22.9823 7.72 22.3346C7.72 22.3615 7.72 22.3964 7.72 22.4314C7.72 26.7152 10.7757 30.2735 14.7827 31.0932C14.0652 31.2894 13.2831 31.3834 12.4715 31.3834C11.9071 31.3834 11.3374 31.3512 10.8026 31.2329C11.9447 34.724 15.1859 37.2906 19.0398 37.3739C16.0405 39.7201 12.2323 41.1337 8.10969 41.1337C7.38675 41.1337 6.69337 41.1014 6 41.0127C9.90494 43.5309 14.5328 44.9688 19.5235 44.9688C35.7452 44.9688 44.614 31.5312 44.614 19.8836C44.614 19.4939 44.6006 19.1177 44.5817 18.7441C46.3313 17.5025 47.8014 15.9518 49 14.1673Z" fill="#F0EFEB"/>
</svg>
