<svg width="204" height="64" viewBox="0 0 204 64" fill="none" xmlns="http://www.w3.org/2000/svg">
<path d="M60 58.8587C58.4071 60.6907 56.6962 61.9908 54.8673 62.759C53.0384 63.5863 50.826 64 48.2301 64C44.8083 64 42.0944 63.2909 40.0885 61.8726C38.1416 60.3952 36.8732 57.9132 36.2832 54.4266L34.6903 45.5623C33.9233 41.2484 32.9794 38.0868 31.8584 36.0776C30.7965 34.0092 28.9971 32.9751 26.4602 32.9751H20.708V53.3629C20.708 55.6085 20.8555 57.2336 21.1504 58.2382C21.5044 59.2428 22.1239 59.9224 23.0088 60.277C23.8938 60.6316 25.3392 60.868 27.3451 60.9861V62.759C24.1593 62.5817 19.705 62.4931 13.9823 62.4931C7.66962 62.4931 3.00885 62.5817 0 62.759V60.9861C1.9469 60.868 3.36283 60.6316 4.24779 60.277C5.19174 59.9224 5.81121 59.2428 6.1062 58.2382C6.46018 57.2336 6.63717 55.6085 6.63717 53.3629V9.39612C6.63717 7.1505 6.46018 5.52539 6.1062 4.52078C5.81121 3.51616 5.19174 2.83656 4.24779 2.48199C3.36283 2.12742 1.9469 1.89104 0 1.77285V0C3.00885 0.177283 7.49262 0.265925 13.4513 0.265925L23.2743 0.177283C24.4543 0.118189 25.8112 0.0886415 27.3451 0.0886415C35.4867 0.0886415 41.5929 1.41828 45.6637 4.07756C49.7935 6.73684 51.8584 10.5485 51.8584 15.5125C51.8584 19.7082 50.3245 23.4017 47.2566 26.5928C44.1888 29.7839 39.115 31.7932 32.0354 32.6205C37.3451 33.0933 41.2979 34.2456 43.8938 36.0776C46.4897 37.9095 48.1711 40.6574 48.9381 44.3213L50.9735 53.4515C51.4454 55.8153 51.9764 57.47 52.5664 58.4155C53.2153 59.361 54.1003 59.8338 55.2212 59.8338C55.9292 59.7747 56.5192 59.5974 56.9912 59.3019C57.5221 59.0065 58.1121 58.5042 58.7611 57.795L60 58.8587ZM26.1947 1.77285C24.6018 1.77285 23.4218 1.97968 22.6549 2.39335C21.9469 2.80701 21.4454 3.5457 21.1504 4.60942C20.8555 5.67313 20.708 7.2687 20.708 9.39612V31.2022H24.5133C29.351 31.2022 32.6549 29.9317 34.4248 27.3906C36.2537 24.7904 37.1681 21.156 37.1681 16.4875C37.1681 11.6417 36.3127 7.97784 34.6018 5.49584C32.8909 3.01385 30.0885 1.77285 26.1947 1.77285Z" fill="#EFEBCE"/>
<path d="M79.936 44.704C79.936 47.648 80.048 50.08 80.272 52C78.096 51.904 74.432 51.856 69.28 51.856C62.304 51.856 57.088 51.904 53.632 52V51.04C54.688 50.976 55.456 50.848 55.936 50.656C56.448 50.464 56.784 50.096 56.944 49.552C57.136 49.008 57.232 48.128 57.232 46.912V23.104C57.232 21.888 57.136 21.008 56.944 20.464C56.784 19.92 56.448 19.552 55.936 19.36C55.456 19.168 54.688 19.04 53.632 18.976V18.016C57.088 18.112 62.304 18.16 69.28 18.16C73.984 18.16 77.328 18.112 79.312 18.016C79.088 20.672 78.976 23.04 78.976 25.12C78.976 26.528 79.024 27.616 79.12 28.384H78.016C77.536 24.96 76.672 22.56 75.424 21.184C74.176 19.808 72.416 19.12 70.144 19.12H68.176C67.184 19.12 66.464 19.2 66.016 19.36C65.568 19.52 65.264 19.84 65.104 20.32C64.944 20.768 64.864 21.504 64.864 22.528V34.432H66.4C68.096 34.432 69.376 33.808 70.24 32.56C71.136 31.312 71.76 29.824 72.112 28.096H73.216C73.12 29.44 73.072 30.944 73.072 32.608V34.912C73.072 36.544 73.168 38.816 73.36 41.728H72.256C71.584 37.504 69.632 35.392 66.4 35.392H64.864V47.488C64.864 48.512 64.944 49.264 65.104 49.744C65.264 50.192 65.568 50.496 66.016 50.656C66.464 50.816 67.184 50.896 68.176 50.896H70.528C72.8 50.896 74.624 50.128 76 48.592C77.408 47.024 78.4 44.384 78.976 40.672H80.08C79.984 41.728 79.936 43.072 79.936 44.704Z" fill="#EFEBCE"/>
<path d="M95.9133 26.512C97.0973 26.512 98.2172 26.64 99.2732 26.896C100.329 27.152 101.209 27.504 101.913 27.952C102.745 28.464 103.385 29.12 103.833 29.92C104.313 30.688 104.553 31.536 104.553 32.464C104.553 33.584 104.201 34.512 103.497 35.248C102.793 35.952 101.881 36.304 100.761 36.304C99.6413 36.304 98.7452 35.984 98.0732 35.344C97.4012 34.704 97.0653 33.84 97.0653 32.752C97.0653 31.792 97.3692 30.96 97.9772 30.256C98.5852 29.552 99.3373 29.072 100.233 28.816C99.9773 28.464 99.5772 28.192 99.0332 28C98.5212 27.776 97.9612 27.664 97.3532 27.664C95.4332 27.664 93.9292 28.72 92.8412 30.832C91.7852 32.912 91.2572 35.648 91.2572 39.04C91.2572 42.464 91.8653 44.928 93.0813 46.432C94.2973 47.936 95.8173 48.688 97.6413 48.688C98.7292 48.688 99.8173 48.4 100.905 47.824C102.025 47.248 103.033 46.24 103.929 44.8L104.745 45.088C104.105 47.168 102.985 48.96 101.385 50.464C99.7853 51.936 97.7213 52.672 95.1933 52.672C91.8973 52.672 89.2092 51.584 87.1292 49.408C85.0492 47.232 84.0092 44 84.0092 39.712C84.0092 36.896 84.5212 34.496 85.5452 32.512C86.5692 30.528 87.9772 29.04 89.7692 28.048C91.5612 27.024 93.6093 26.512 95.9133 26.512Z" fill="#EFEBCE"/>
<path d="M117.038 47.536C117.038 48.848 117.262 49.76 117.71 50.272C118.158 50.752 118.958 50.992 120.11 50.992V52C116.782 51.872 114.638 51.808 113.678 51.808C112.59 51.808 110.382 51.872 107.054 52V50.992C108.174 50.992 108.958 50.752 109.406 50.272C109.886 49.76 110.126 48.848 110.126 47.536V20.176C110.126 18.704 109.886 17.632 109.406 16.96C108.958 16.288 108.174 15.952 107.054 15.952V14.944C108.078 15.04 109.07 15.088 110.03 15.088C112.814 15.088 115.15 14.864 117.038 14.416V47.536Z" fill="#EFEBCE"/>
<path d="M128.488 52.336C126.44 52.336 124.904 51.808 123.88 50.752C122.888 49.696 122.392 48.304 122.392 46.576C122.392 45.136 122.76 43.952 123.496 43.024C124.264 42.064 125.176 41.328 126.232 40.816C127.32 40.304 128.696 39.76 130.36 39.184C132.12 38.576 133.4 38.032 134.2 37.552C135.032 37.04 135.448 36.352 135.448 35.488V31.744C135.448 30.4 135.128 29.36 134.488 28.624C133.88 27.856 132.92 27.472 131.608 27.472C130.072 27.472 128.904 27.856 128.104 28.624C129 28.944 129.688 29.424 130.168 30.064C130.68 30.704 130.936 31.456 130.936 32.32C130.936 33.408 130.568 34.272 129.832 34.912C129.096 35.552 128.2 35.872 127.144 35.872C126.024 35.872 125.16 35.52 124.552 34.816C123.944 34.112 123.64 33.232 123.64 32.176C123.64 31.28 123.848 30.528 124.264 29.92C124.712 29.28 125.384 28.688 126.28 28.144C127.144 27.632 128.2 27.232 129.448 26.944C130.728 26.656 132.12 26.512 133.624 26.512C135.192 26.512 136.552 26.672 137.704 26.992C138.856 27.312 139.816 27.856 140.584 28.624C141.288 29.328 141.752 30.192 141.976 31.216C142.232 32.24 142.36 33.632 142.36 35.392V48.448C142.36 49.216 142.424 49.76 142.552 50.08C142.712 50.4 143 50.56 143.416 50.56C143.896 50.56 144.472 50.288 145.144 49.744L145.624 50.56C144.184 51.744 142.424 52.336 140.344 52.336C138.584 52.336 137.352 51.984 136.648 51.28C135.944 50.576 135.576 49.632 135.544 48.448C133.944 51.04 131.592 52.336 128.488 52.336ZM132.184 49.264C133.432 49.264 134.52 48.608 135.448 47.296V37.456C135.064 38.096 134.248 38.8 133 39.568C131.752 40.368 130.808 41.168 130.168 41.968C129.528 42.768 129.208 43.92 129.208 45.424C129.208 46.736 129.48 47.712 130.024 48.352C130.568 48.96 131.288 49.264 132.184 49.264Z" fill="#EFEBCE"/>
<path d="M153.236 14.8C154.58 14.8 155.636 15.136 156.404 15.808C157.204 16.448 157.604 17.344 157.604 18.496C157.604 19.648 157.204 20.56 156.404 21.232C155.636 21.872 154.58 22.192 153.236 22.192C151.892 22.192 150.82 21.872 150.02 21.232C149.252 20.56 148.868 19.648 148.868 18.496C148.868 17.344 149.252 16.448 150.02 15.808C150.82 15.136 151.892 14.8 153.236 14.8ZM156.98 47.536C156.98 48.848 157.204 49.76 157.652 50.272C158.132 50.752 158.932 50.992 160.052 50.992V52C156.852 51.872 154.724 51.808 153.668 51.808C152.676 51.808 150.452 51.872 146.996 52V50.992C148.148 50.992 148.948 50.752 149.396 50.272C149.844 49.76 150.068 48.848 150.068 47.536V32.416C150.068 30.944 149.844 29.872 149.396 29.2C148.948 28.528 148.148 28.192 146.996 28.192V27.184C148.02 27.28 149.012 27.328 149.972 27.328C152.82 27.328 155.156 27.104 156.98 26.656V47.536Z" fill="#EFEBCE"/>
<path d="M200.428 59.032C200.428 60.344 200.652 61.256 201.1 61.768C201.58 62.248 202.38 62.488 203.5 62.488V63.496C200.3 63.368 198.188 63.304 197.164 63.304C196.268 63.304 194.284 63.368 191.212 63.496V62.488C192.076 62.488 192.668 62.248 192.988 61.768C193.34 61.288 193.516 60.376 193.516 59.032L193.68 32.592C193.68 31.248 193.472 30.256 193.056 29.616C192.672 28.944 191.92 28.608 190.8 28.608C189.616 28.608 188.576 29.104 187.68 30.096C186.816 31.088 186.304 32.304 186.144 33.744V47.52C186.144 48.832 186.336 49.744 186.72 50.256C187.136 50.736 187.872 50.976 188.928 50.976V51.984C185.856 51.856 183.84 51.792 182.88 51.792C181.984 51.792 180 51.856 176.928 51.984V50.976C177.792 50.976 178.384 50.736 178.704 50.256C179.056 49.744 179.232 48.832 179.232 47.52V32.592C179.232 31.248 179.056 30.256 178.704 29.616C178.352 28.944 177.664 28.608 176.64 28.608C175.36 28.608 174.256 29.152 173.328 30.24C172.432 31.296 171.984 32.608 171.984 34.176V47.52C171.984 48.832 172.144 49.744 172.464 50.256C172.816 50.736 173.424 50.976 174.288 50.976V51.984C171.472 51.856 169.584 51.792 168.624 51.792C167.664 51.792 165.456 51.856 162 51.984V50.976C163.152 50.976 163.952 50.736 164.4 50.256C164.848 49.744 165.072 48.832 165.072 47.52V32.4C165.072 30.928 164.848 29.856 164.4 29.184C163.952 28.512 163.152 28.176 162 28.176V27.168C163.024 27.264 164.016 27.312 164.976 27.312C167.824 27.312 170.16 27.088 171.984 26.64V30.96C173.392 27.984 175.872 26.496 179.424 26.496C181.856 26.496 183.616 27.12 184.704 28.368C185.312 29.008 185.712 29.968 185.904 31.248C186.736 29.52 187.824 28.304 189.168 27.6C190.512 26.864 192.08 26.496 193.872 26.496C196.304 26.496 198.064 27.12 199.152 28.368C199.664 28.944 200.032 29.728 200.256 30.72C200.48 31.712 200.592 33.008 200.592 34.608L200.428 59.032Z" fill="#EFEBCE"/>
</svg>
