<svg width="48" height="48" viewBox="0 0 48 48" fill="none" xmlns="http://www.w3.org/2000/svg">
<path d="M24 43.5C22.4087 43.5 20.8826 42.8679 19.7574 41.7426C18.6321 40.6174 18 39.0913 18 37.5C18 37.1022 18.158 36.7206 18.4393 36.4393C18.7206 36.158 19.1022 36 19.5 36H28.5C28.8978 36 29.2794 36.158 29.5607 36.4393C29.842 36.7206 30 37.1022 30 37.5C30 39.0913 29.3679 40.6174 28.2426 41.7426C27.1174 42.8679 25.5913 43.5 24 43.5ZM21.405 39C21.6687 39.4546 22.0472 39.832 22.5027 40.0943C22.9581 40.3566 23.4744 40.4947 24 40.4947C24.5256 40.4947 25.0419 40.3566 25.4973 40.0943C25.9528 39.832 26.3313 39.4546 26.595 39H21.405Z" fill="#EFEBCE"/>
<path d="M27 10.5H21C20.6022 10.5 20.2206 10.342 19.9393 10.0607C19.658 9.77936 19.5 9.39782 19.5 9C19.5 7.80653 19.9741 6.66193 20.818 5.81802C21.6619 4.97411 22.8065 4.5 24 4.5C25.1935 4.5 26.3381 4.97411 27.182 5.81802C28.0259 6.66193 28.5 7.80653 28.5 9C28.5 9.39782 28.342 9.77936 28.0607 10.0607C27.7794 10.342 27.3978 10.5 27 10.5Z" fill="#EFEBCE"/>
<path d="M40.5 39H7.5C7.10218 39 6.72065 38.842 6.43934 38.5607C6.15804 38.2794 6 37.8978 6 37.5C5.99869 35.806 6.40726 34.1368 7.19086 32.6349C7.97445 31.133 9.1098 29.843 10.5 28.875V21C10.4999 17.4351 11.9099 14.0149 14.4222 11.4857C16.9345 8.95657 20.3452 7.52377 23.91 7.5H24.075C27.6554 7.5 31.0892 8.92232 33.6209 11.4541C36.1527 13.9858 37.575 17.4196 37.575 21V28.875C38.9514 29.8513 40.0721 31.1449 40.8424 32.6463C41.6127 34.1477 42.0098 35.8126 42 37.5V37.5C42 37.8978 41.842 38.2794 41.5607 38.5607C41.2794 38.842 40.8978 39 40.5 39ZM9.15 36H38.85C38.6375 34.9601 38.2068 33.9771 37.5862 33.116C36.9656 32.255 36.1693 31.5354 35.25 31.005C35.0211 30.8728 34.8312 30.6825 34.6995 30.4534C34.5678 30.2242 34.4989 29.9643 34.5 29.7V21C34.5 18.2152 33.3938 15.5445 31.4246 13.5754C29.4555 11.6062 26.7848 10.5 24 10.5C21.2152 10.5 18.5445 11.6062 16.5754 13.5754C14.6062 15.5445 13.5 18.2152 13.5 21V29.7C13.5011 29.9643 13.4322 30.2242 13.3005 30.4534C13.1688 30.6825 12.9789 30.8728 12.75 31.005C11.8307 31.5354 11.0344 32.255 10.4138 33.116C9.79321 33.9771 9.36245 34.9601 9.15 36V36Z" fill="#EFEBCE"/>
</svg>
