<svg width="151" height="138" viewBox="0 0 151 138" fill="none" xmlns="http://www.w3.org/2000/svg">
<path d="M94 77.8H50V38.5H33.2999L72 0.699997L110.7 38.5H94V77.8ZM112 96.7C114.6 96.7 116.7 94.6 116.7 92V62.9H127.9V92.7C127.9 101.1 121.1 107.9 112.7 107.9H31.4C23 107.9 16.2 101.1 16.2 92.7V62.9H27.4V92C27.4 94.6 29.5 96.7 32.1 96.7H112Z" fill="#F0EFEB"/>
<path d="M15.6782 116.488C15.1502 116.568 14.7582 116.704 14.5022 116.896C14.2622 117.088 14.0942 117.392 13.9982 117.808C13.9182 118.224 13.8782 118.84 13.8782 119.656V126.016C13.8782 128.304 13.5502 130 12.8942 131.104C12.4622 131.808 11.8382 132.36 11.0222 132.76C10.2062 133.144 9.20622 133.336 8.02222 133.336C6.16622 133.336 4.72622 132.936 3.70222 132.136C2.96622 131.544 2.47022 130.8 2.21422 129.904C1.95822 128.992 1.83022 127.72 1.83022 126.088V118.552C1.83022 117.944 1.78222 117.504 1.68622 117.232C1.60622 116.96 1.43822 116.776 1.18222 116.68C0.942219 116.584 0.558219 116.52 0.0302188 116.488V116.008C0.846219 116.056 2.09422 116.08 3.77422 116.08C5.43822 116.08 6.71022 116.056 7.59022 116.008V116.488C7.01422 116.52 6.59022 116.584 6.31822 116.68C6.06222 116.776 5.88622 116.96 5.79022 117.232C5.69422 117.504 5.64622 117.944 5.64622 118.552V127.6C5.64622 129.28 5.88622 130.52 6.36622 131.32C6.86222 132.104 7.72622 132.496 8.95822 132.496C10.5582 132.496 11.6862 131.96 12.3422 130.888C12.9982 129.8 13.3262 128.264 13.3262 126.28V119.944C13.3262 119.016 13.2702 118.328 13.1582 117.88C13.0462 117.432 12.8302 117.112 12.5102 116.92C12.1902 116.712 11.6862 116.568 10.9982 116.488V116.008C11.6062 116.056 12.4702 116.08 13.5902 116.08C14.4862 116.08 15.1822 116.056 15.6782 116.008V116.488ZM24.9147 120.256C25.7467 120.256 26.4827 120.48 27.1227 120.928C27.7787 121.376 28.2907 122.048 28.6587 122.944C29.0267 123.84 29.2107 124.936 29.2107 126.232C29.2107 128.52 28.7067 130.28 27.6987 131.512C26.7067 132.728 25.3547 133.336 23.6427 133.336C23.1627 133.336 22.7067 133.272 22.2747 133.144C21.8587 133.016 21.4987 132.824 21.1947 132.568V134.968C21.1947 135.672 21.3707 136.16 21.7227 136.432C22.0747 136.704 22.6187 136.84 23.3547 136.84V137.344L22.7067 137.32C20.9307 137.272 19.8027 137.248 19.3227 137.248C18.8427 137.248 17.8347 137.28 16.2987 137.344V136.84C16.8267 136.84 17.1947 136.72 17.4027 136.48C17.6267 136.256 17.7387 135.832 17.7387 135.208V123.208C17.7387 122.472 17.6187 121.936 17.3787 121.6C17.1547 121.264 16.7627 121.096 16.2027 121.096V120.592C16.7147 120.64 17.2107 120.664 17.6907 120.664C19.0827 120.664 20.2507 120.552 21.1947 120.328V122.536C21.5307 121.8 22.0187 121.24 22.6587 120.856C23.2987 120.456 24.0507 120.256 24.9147 120.256ZM22.7067 132.688C23.7307 132.688 24.4667 132.184 24.9147 131.176C25.3627 130.152 25.5867 128.664 25.5867 126.712C25.5867 124.76 25.4027 123.368 25.0347 122.536C24.6827 121.704 24.1707 121.288 23.4987 121.288C22.9547 121.288 22.4667 121.472 22.0347 121.84C21.6187 122.208 21.3387 122.72 21.1947 123.376V132.04C21.5787 132.472 22.0827 132.688 22.7067 132.688ZM35.5853 130.768C35.5853 131.424 35.6973 131.88 35.9213 132.136C36.1453 132.376 36.5453 132.496 37.1213 132.496V133C35.4573 132.936 34.3853 132.904 33.9053 132.904C33.3613 132.904 32.2573 132.936 30.5933 133V132.496C31.1533 132.496 31.5453 132.376 31.7693 132.136C32.0093 131.88 32.1293 131.424 32.1293 130.768V117.088C32.1293 116.352 32.0093 115.816 31.7693 115.48C31.5453 115.144 31.1533 114.976 30.5933 114.976V114.472C31.1053 114.52 31.6013 114.544 32.0813 114.544C33.4733 114.544 34.6413 114.432 35.5853 114.208V130.768ZM44.1 120.256C45.94 120.256 47.38 120.784 48.42 121.84C49.46 122.88 49.98 124.536 49.98 126.808C49.98 129.08 49.46 130.736 48.42 131.776C47.38 132.816 45.94 133.336 44.1 133.336C42.276 133.336 40.836 132.816 39.78 131.776C38.74 130.736 38.22 129.08 38.22 126.808C38.22 124.536 38.74 122.88 39.78 121.84C40.836 120.784 42.276 120.256 44.1 120.256ZM44.1 120.736C43.412 120.736 42.86 121.24 42.444 122.248C42.044 123.24 41.844 124.76 41.844 126.808C41.844 128.856 42.044 130.376 42.444 131.368C42.86 132.36 43.412 132.856 44.1 132.856C44.804 132.856 45.356 132.368 45.756 131.392C46.156 130.4 46.356 128.872 46.356 126.808C46.356 124.744 46.148 123.216 45.732 122.224C45.332 121.232 44.788 120.736 44.1 120.736ZM54.6463 133.168C53.6223 133.168 52.8543 132.904 52.3423 132.376C51.8463 131.848 51.5983 131.152 51.5983 130.288C51.5983 129.568 51.7823 128.976 52.1503 128.512C52.5343 128.032 52.9903 127.664 53.5183 127.408C54.0623 127.152 54.7503 126.88 55.5823 126.592C56.4623 126.288 57.1023 126.016 57.5023 125.776C57.9183 125.52 58.1263 125.176 58.1263 124.744V122.872C58.1263 122.2 57.9663 121.68 57.6463 121.312C57.3423 120.928 56.8623 120.736 56.2063 120.736C55.4383 120.736 54.8543 120.928 54.4543 121.312C54.9023 121.472 55.2463 121.712 55.4863 122.032C55.7423 122.352 55.8703 122.728 55.8703 123.16C55.8703 123.704 55.6863 124.136 55.3183 124.456C54.9503 124.776 54.5023 124.936 53.9743 124.936C53.4143 124.936 52.9823 124.76 52.6783 124.408C52.3743 124.056 52.2223 123.616 52.2223 123.088C52.2223 122.64 52.3263 122.264 52.5343 121.96C52.7583 121.64 53.0943 121.344 53.5423 121.072C53.9743 120.816 54.5023 120.616 55.1263 120.472C55.7663 120.328 56.4623 120.256 57.2143 120.256C57.9983 120.256 58.6783 120.336 59.2543 120.496C59.8303 120.656 60.3103 120.928 60.6943 121.312C61.0463 121.664 61.2783 122.096 61.3903 122.608C61.5183 123.12 61.5823 123.816 61.5823 124.696V131.224C61.5823 131.608 61.6143 131.88 61.6783 132.04C61.7583 132.2 61.9023 132.28 62.1103 132.28C62.3503 132.28 62.6383 132.144 62.9743 131.872L63.2143 132.28C62.4943 132.872 61.6143 133.168 60.5743 133.168C59.6943 133.168 59.0783 132.992 58.7263 132.64C58.3743 132.288 58.1903 131.816 58.1743 131.224C57.3743 132.52 56.1983 133.168 54.6463 133.168ZM56.4943 131.632C57.1183 131.632 57.6623 131.304 58.1263 130.648V125.728C57.9343 126.048 57.5263 126.4 56.9023 126.784C56.2783 127.184 55.8063 127.584 55.4863 127.984C55.1663 128.384 55.0063 128.96 55.0063 129.712C55.0063 130.368 55.1423 130.856 55.4143 131.176C55.6863 131.48 56.0463 131.632 56.4943 131.632ZM75.7082 130.36C75.7082 131.096 75.8202 131.632 76.0442 131.968C76.2682 132.304 76.6682 132.472 77.2442 132.472V132.976C76.7482 132.928 76.2522 132.904 75.7562 132.904C74.3322 132.904 73.1642 133.016 72.2522 133.24V131.176C71.7082 132.616 70.6682 133.336 69.1322 133.336C67.6282 133.336 66.4282 132.792 65.5322 131.704C64.6522 130.6 64.2202 128.944 64.2362 126.736C64.2362 125.328 64.4602 124.144 64.9082 123.184C65.3722 122.208 66.0042 121.48 66.8042 121C67.6202 120.504 68.5482 120.256 69.5882 120.256C70.7562 120.256 71.6442 120.56 72.2522 121.168V117.088C72.2522 116.352 72.1322 115.816 71.8922 115.48C71.6682 115.144 71.2762 114.976 70.7162 114.976V114.472C71.2282 114.52 71.7242 114.544 72.2042 114.544C73.5962 114.544 74.7642 114.432 75.7082 114.208V130.36ZM70.1162 132.304C70.6442 132.304 71.1082 132.112 71.5082 131.728C71.9242 131.344 72.1722 130.824 72.2522 130.168V121.768C71.8522 121.224 71.2682 120.952 70.5002 120.952C69.6522 120.952 68.9962 121.44 68.5322 122.416C68.0682 123.392 67.8442 124.848 67.8602 126.784C67.8442 128.736 68.0282 130.144 68.4122 131.008C68.8122 131.872 69.3802 132.304 70.1162 132.304ZM91.5015 116.488C90.9575 116.52 90.5655 116.584 90.3255 116.68C90.0855 116.776 89.9175 116.96 89.8215 117.232C89.7415 117.504 89.7015 117.944 89.7015 118.552V130.456C89.7015 131.064 89.7415 131.504 89.8215 131.776C89.9175 132.048 90.0855 132.232 90.3255 132.328C90.5655 132.424 90.9575 132.488 91.5015 132.52V133C90.6375 132.952 89.4295 132.928 87.8775 132.928C86.1655 132.928 84.9015 132.952 84.0855 133V132.52C84.6135 132.488 84.9975 132.424 85.2375 132.328C85.4935 132.232 85.6615 132.048 85.7415 131.776C85.8375 131.504 85.8855 131.064 85.8855 130.456V118.552C85.8855 117.944 85.8375 117.504 85.7415 117.232C85.6615 116.96 85.4935 116.776 85.2375 116.68C84.9975 116.584 84.6135 116.52 84.0855 116.488V116.008C84.9015 116.056 86.1655 116.08 87.8775 116.08C89.4295 116.08 90.6375 116.056 91.5015 116.008V116.488ZM112.165 130.768C112.165 131.424 112.277 131.88 112.501 132.136C112.741 132.376 113.141 132.496 113.701 132.496V133C112.101 132.936 111.045 132.904 110.533 132.904C110.085 132.904 109.093 132.936 107.557 133V132.496C107.989 132.496 108.285 132.376 108.445 132.136C108.621 131.896 108.709 131.44 108.709 130.768V123.304C108.709 122.632 108.605 122.136 108.397 121.816C108.205 121.48 107.829 121.312 107.269 121.312C106.677 121.312 106.157 121.56 105.709 122.056C105.277 122.552 105.021 123.16 104.941 123.88V124.312V130.768C104.941 131.424 105.037 131.88 105.229 132.136C105.437 132.376 105.805 132.496 106.333 132.496V133C104.797 132.936 103.789 132.904 103.309 132.904C102.861 132.904 101.869 132.936 100.333 133V132.496C100.765 132.496 101.061 132.376 101.221 132.136C101.397 131.88 101.485 131.424 101.485 130.768V123.304C101.485 122.632 101.397 122.136 101.221 121.816C101.045 121.48 100.701 121.312 100.189 121.312C99.549 121.312 98.997 121.584 98.533 122.128C98.085 122.656 97.861 123.312 97.861 124.096V130.768C97.861 131.424 97.941 131.88 98.101 132.136C98.277 132.376 98.581 132.496 99.013 132.496V133C97.605 132.936 96.661 132.904 96.181 132.904C95.701 132.904 94.597 132.936 92.869 133V132.496C93.445 132.496 93.845 132.376 94.069 132.136C94.293 131.88 94.405 131.424 94.405 130.768V123.208C94.405 122.472 94.293 121.936 94.069 121.6C93.845 121.264 93.445 121.096 92.869 121.096V120.592C93.381 120.64 93.877 120.664 94.357 120.664C95.781 120.664 96.949 120.552 97.861 120.328V122.488C98.565 121 99.805 120.256 101.581 120.256C102.797 120.256 103.677 120.568 104.221 121.192C104.525 121.512 104.725 121.992 104.821 122.632C105.237 121.768 105.781 121.16 106.453 120.808C107.125 120.44 107.909 120.256 108.805 120.256C110.021 120.256 110.901 120.568 111.445 121.192C111.701 121.48 111.885 121.872 111.997 122.368C112.109 122.864 112.165 123.512 112.165 124.312V130.768ZM117.764 133.168C116.74 133.168 115.972 132.904 115.46 132.376C114.964 131.848 114.716 131.152 114.716 130.288C114.716 129.568 114.9 128.976 115.268 128.512C115.652 128.032 116.108 127.664 116.636 127.408C117.18 127.152 117.868 126.88 118.7 126.592C119.58 126.288 120.22 126.016 120.62 125.776C121.036 125.52 121.244 125.176 121.244 124.744V122.872C121.244 122.2 121.084 121.68 120.764 121.312C120.46 120.928 119.98 120.736 119.324 120.736C118.556 120.736 117.972 120.928 117.572 121.312C118.02 121.472 118.364 121.712 118.604 122.032C118.86 122.352 118.988 122.728 118.988 123.16C118.988 123.704 118.804 124.136 118.436 124.456C118.068 124.776 117.62 124.936 117.092 124.936C116.532 124.936 116.1 124.76 115.796 124.408C115.492 124.056 115.34 123.616 115.34 123.088C115.34 122.64 115.444 122.264 115.652 121.96C115.876 121.64 116.212 121.344 116.66 121.072C117.092 120.816 117.62 120.616 118.244 120.472C118.884 120.328 119.58 120.256 120.332 120.256C121.116 120.256 121.796 120.336 122.372 120.496C122.948 120.656 123.428 120.928 123.812 121.312C124.164 121.664 124.396 122.096 124.508 122.608C124.636 123.12 124.7 123.816 124.7 124.696V131.224C124.7 131.608 124.732 131.88 124.796 132.04C124.876 132.2 125.02 132.28 125.228 132.28C125.468 132.28 125.756 132.144 126.092 131.872L126.332 132.28C125.612 132.872 124.732 133.168 123.692 133.168C122.812 133.168 122.196 132.992 121.844 132.64C121.492 132.288 121.308 131.816 121.292 131.224C120.492 132.52 119.316 133.168 117.764 133.168ZM119.612 131.632C120.236 131.632 120.78 131.304 121.244 130.648V125.728C121.052 126.048 120.644 126.4 120.02 126.784C119.396 127.184 118.924 127.584 118.604 127.984C118.284 128.384 118.124 128.96 118.124 129.712C118.124 130.368 118.26 130.856 118.532 131.176C118.804 131.48 119.164 131.632 119.612 131.632ZM138.393 122.896C138.073 122.896 137.801 122.792 137.577 122.584C137.353 122.36 137.241 122.048 137.241 121.648C137.241 121.264 137.337 120.872 137.529 120.472C137.145 120.632 136.825 120.816 136.569 121.024C136.329 121.216 136.121 121.464 135.945 121.768C136.441 122.36 136.689 123.128 136.689 124.072C136.689 125.336 136.249 126.288 135.369 126.928C134.505 127.568 133.353 127.888 131.913 127.888H131.481C130.825 128.272 130.497 128.696 130.497 129.16C130.497 129.672 130.817 129.928 131.457 129.928H134.073C135.481 129.928 136.601 130.192 137.433 130.72C138.281 131.232 138.705 132.024 138.705 133.096C138.705 133.912 138.441 134.648 137.913 135.304C137.401 135.976 136.617 136.512 135.561 136.912C134.505 137.312 133.209 137.512 131.673 137.512C130.121 137.512 128.873 137.312 127.929 136.912C127.001 136.528 126.537 135.968 126.537 135.232C126.537 134.736 126.761 134.288 127.209 133.888C127.657 133.504 128.321 133.2 129.201 132.976L129.417 133.36C128.841 133.84 128.553 134.392 128.553 135.016C128.553 135.688 128.857 136.2 129.465 136.552C130.073 136.92 130.913 137.104 131.985 137.104C133.105 137.104 134.009 136.88 134.697 136.432C135.401 135.984 135.753 135.352 135.753 134.536C135.753 134.008 135.553 133.592 135.153 133.288C134.769 132.984 134.089 132.832 133.113 132.832H131.625C130.601 132.832 129.801 132.664 129.225 132.328C128.649 131.976 128.361 131.448 128.361 130.744C128.361 130.152 128.569 129.624 128.985 129.16C129.401 128.696 130.033 128.248 130.881 127.816C129.729 127.672 128.817 127.288 128.145 126.664C127.473 126.04 127.137 125.176 127.137 124.072C127.137 122.808 127.569 121.856 128.433 121.216C129.313 120.576 130.473 120.256 131.913 120.256C133.513 120.256 134.737 120.632 135.585 121.384C135.889 120.952 136.265 120.608 136.713 120.352C137.161 120.096 137.617 119.968 138.081 119.968C138.561 119.968 138.937 120.112 139.209 120.4C139.497 120.672 139.641 121.032 139.641 121.48C139.641 121.928 139.513 122.28 139.257 122.536C139.017 122.776 138.729 122.896 138.393 122.896ZM131.913 127.456C132.361 127.456 132.697 127.2 132.921 126.688C133.161 126.176 133.281 125.304 133.281 124.072C133.281 122.84 133.161 121.968 132.921 121.456C132.697 120.944 132.361 120.688 131.913 120.688C131.465 120.688 131.121 120.944 130.881 121.456C130.657 121.968 130.545 122.84 130.545 124.072C130.545 125.304 130.657 126.176 130.881 126.688C131.121 127.2 131.465 127.456 131.913 127.456ZM146.964 131.368C148.276 131.368 149.332 130.728 150.132 129.448L150.564 129.592C150.244 130.632 149.668 131.52 148.836 132.256C148.02 132.976 146.996 133.336 145.764 133.336C144.068 133.336 142.716 132.8 141.708 131.728C140.716 130.64 140.22 129.04 140.22 126.928C140.22 124.768 140.756 123.12 141.828 121.984C142.9 120.832 144.324 120.256 146.1 120.256C149.108 120.256 150.612 122.032 150.612 125.584H143.868C143.852 125.824 143.844 126.2 143.844 126.712C143.844 127.768 143.988 128.648 144.276 129.352C144.58 130.056 144.964 130.568 145.428 130.888C145.908 131.208 146.42 131.368 146.964 131.368ZM145.956 120.76C145.38 120.76 144.9 121.12 144.516 121.84C144.148 122.544 143.916 123.64 143.82 125.128H147.588C147.62 123.864 147.492 122.824 147.204 122.008C146.932 121.176 146.516 120.76 145.956 120.76Z" fill="#C4C4C4"/>
</svg>
