<svg width="37" height="43" viewBox="0 0 37 43" fill="none" xmlns="http://www.w3.org/2000/svg">
<path d="M36.2743 41.2039L33.6577 12.0644C33.5863 11.2686 32.9193 10.6591 32.1205 10.6591H26.7246V8.22547C26.7246 3.68995 23.0348 0 18.4995 0C13.9644 0 10.2751 3.68995 10.2751 8.22547V10.6591H4.87545C4.07659 10.6591 3.40964 11.2686 3.33823 12.0644L0.711371 41.3185C0.672684 41.7503 0.817145 42.1781 1.10957 42.4979C1.40199 42.8177 1.81541 42.9998 2.24859 42.9998H34.7475H34.7517C35.6042 42.9998 36.2951 42.3088 36.2951 41.4564C36.2948 41.3706 36.2878 41.286 36.2743 41.2039ZM13.3619 8.22547C13.3619 5.392 15.6667 3.08679 18.4997 3.08679C21.333 3.08679 23.638 5.392 23.638 8.22547V10.6591H13.3619V8.22547ZM3.93686 39.9132L6.28652 13.7459H10.2751V16.5059C10.2751 17.3582 10.9659 18.0493 11.8185 18.0493C12.671 18.0493 13.3619 17.3582 13.3619 16.5059V13.7459H23.638V16.5059C23.638 17.3582 24.3288 18.0493 25.1814 18.0493C26.0339 18.0493 26.7248 17.3582 26.7248 16.5059V13.7459H30.7096L33.0593 39.9132H3.93686Z" fill="#F0EFEB"/>
</svg>
