<svg width="38" height="39" viewBox="0 0 38 39" fill="none" xmlns="http://www.w3.org/2000/svg">
<path d="M15.0599 0.580017C6.97729 0.580017 0.439941 7.11736 0.439941 15.2C0.439941 23.2827 6.97729 29.82 15.0599 29.82C17.9456 29.82 20.6163 28.9735 22.8806 27.5356L33.4424 38.0975L37.0974 34.4425L26.6699 24.0419C28.5445 21.5828 29.6799 18.5359 29.6799 15.2C29.6799 7.11736 23.1426 0.580017 15.0599 0.580017ZM15.0599 4.02002C21.2513 4.02002 26.2399 9.00869 26.2399 15.2C26.2399 21.3913 21.2513 26.38 15.0599 26.38C8.86861 26.38 3.87994 21.3913 3.87994 15.2C3.87994 9.00869 8.86861 4.02002 15.0599 4.02002Z" fill="#F0EFEB"/>
</svg>
